<svg width="435" height="300" viewBox="0 0 435 300" fill="none" xmlns="http://www.w3.org/2000/svg">
<path d="M130.562 91.375V28H133.938V91.375C133.938 97.5833 132.771 102.854 130.438 107.188C128.146 111.479 125.021 114.729 121.062 116.938C117.104 119.146 112.646 120.25 107.688 120.25C102.354 120.25 97.7083 119.292 93.75 117.375C89.8333 115.458 86.7917 112.562 84.625 108.688C82.5 104.771 81.4375 99.8542 81.4375 93.9375H84.8125C84.8125 98.8542 85.6667 103.021 87.375 106.438C89.0833 109.854 91.625 112.458 95 114.25C98.4167 116 102.646 116.875 107.688 116.875C111.854 116.875 115.667 115.917 119.125 114C122.583 112.083 125.354 109.229 127.438 105.438C129.521 101.646 130.562 96.9583 130.562 91.375ZM199.375 106.312V71.375C199.375 67.625 198.562 64.4167 196.938 61.75C195.354 59.0833 193.021 57.0417 189.938 55.625C186.896 54.2083 183.167 53.5 178.75 53.5C174.667 53.5 170.979 54.2292 167.688 55.6875C164.438 57.1042 161.854 59.0625 159.938 61.5625C158.062 64.0625 157.125 66.875 157.125 70L153.75 69.875C153.75 67.25 154.354 64.75 155.562 62.375C156.812 60 158.542 57.8958 160.75 56.0625C163 54.2292 165.646 52.7917 168.688 51.75C171.771 50.6667 175.125 50.125 178.75 50.125C183.458 50.125 187.604 50.9167 191.188 52.5C194.812 54.0833 197.646 56.4583 199.688 59.625C201.729 62.7917 202.75 66.75 202.75 71.5V105.375C202.75 107.792 202.896 110.229 203.188 112.688C203.521 115.146 203.958 117.062 204.5 118.438V119H200.625C200.208 117.375 199.896 115.417 199.688 113.125C199.479 110.792 199.375 108.521 199.375 106.312ZM200.875 81.25L201 84.6875H183.375C179 84.6875 175.083 85.125 171.625 86C168.167 86.8333 165.229 88.0208 162.812 89.5625C160.396 91.1042 158.542 92.9375 157.25 95.0625C155.958 97.1875 155.312 99.5417 155.312 102.125C155.312 104.833 156.042 107.312 157.5 109.562C159 111.812 161.062 113.604 163.688 114.938C166.312 116.271 169.333 116.938 172.75 116.938C177.5 116.938 181.708 116.167 185.375 114.625C189.042 113.042 192.146 110.833 194.688 108C197.229 105.167 199.167 101.812 200.5 97.9375L202 101.062C201.208 103.396 200.021 105.708 198.438 108C196.896 110.25 194.917 112.312 192.5 114.188C190.083 116.021 187.229 117.5 183.938 118.625C180.688 119.708 176.958 120.25 172.75 120.25C168.542 120.25 164.875 119.479 161.75 117.938C158.625 116.354 156.208 114.188 154.5 111.438C152.792 108.646 151.938 105.458 151.938 101.875C151.938 98.875 152.646 96.125 154.062 93.625C155.479 91.0833 157.521 88.8958 160.188 87.0625C162.896 85.1875 166.188 83.75 170.062 82.75C173.938 81.75 178.312 81.25 183.188 81.25H200.875ZM227.312 65.875V119H223.875V51.375H227.312V65.875ZM226.875 79.375L225.062 75.8125C225.479 72.4792 226.375 69.2917 227.75 66.25C229.167 63.1667 231 60.4167 233.25 58C235.542 55.5833 238.188 53.6667 241.188 52.25C244.229 50.8333 247.583 50.125 251.25 50.125C254.667 50.125 257.708 50.5833 260.375 51.5C263.083 52.375 265.354 53.7708 267.188 55.6875C269.062 57.5625 270.479 60.0208 271.438 63.0625C272.438 66.1042 272.938 69.75 272.938 74V119H269.562V74C269.562 68.5833 268.771 64.3958 267.188 61.4375C265.604 58.4792 263.417 56.4167 260.625 55.25C257.833 54.0417 254.646 53.4375 251.062 53.4375C246.812 53.4375 243.188 54.3958 240.188 56.3125C237.188 58.1875 234.729 60.5417 232.812 63.375C230.896 66.2083 229.458 69.0833 228.5 72C227.542 74.9167 227 77.375 226.875 79.375ZM272.938 74L270.625 71.9375C271.042 69.0625 271.958 66.3333 273.375 63.75C274.833 61.125 276.708 58.7917 279 56.75C281.292 54.7083 283.958 53.1042 287 51.9375C290.083 50.7292 293.458 50.125 297.125 50.125C300.542 50.125 303.583 50.6042 306.25 51.5625C308.958 52.4792 311.229 53.9583 313.062 56C314.938 58 316.354 60.5833 317.312 63.75C318.312 66.9167 318.812 70.75 318.812 75.25V119H315.438V75.25C315.438 69.5 314.646 65.0417 313.062 61.875C311.479 58.7083 309.292 56.5 306.5 55.25C303.708 54 300.521 53.3958 296.938 53.4375C292.938 53.4792 289.458 54.2292 286.5 55.6875C283.583 57.1042 281.146 58.8958 279.188 61.0625C277.229 63.2292 275.729 65.4792 274.688 67.8125C273.688 70.1042 273.104 72.1667 272.938 74ZM67.125 247.188C67.125 244.312 66.625 241.75 65.625 239.5C64.625 237.25 63.0208 235.229 60.8125 233.438C58.6042 231.646 55.7083 230 52.125 228.5C48.5833 227 44.2292 225.542 39.0625 224.125C34.4375 222.875 30.2708 221.542 26.5625 220.125C22.8542 218.667 19.6875 217 17.0625 215.125C14.4792 213.25 12.5 211.021 11.125 208.438C9.75 205.812 9.0625 202.667 9.0625 199C9.0625 195.542 9.8125 192.438 11.3125 189.688C12.8542 186.938 14.9792 184.604 17.6875 182.688C20.4375 180.771 23.6458 179.312 27.3125 178.312C30.9792 177.271 34.9583 176.75 39.25 176.75C45.1667 176.75 50.3958 177.875 54.9375 180.125C59.4792 182.375 63.0417 185.521 65.625 189.562C68.25 193.562 69.5625 198.25 69.5625 203.625H66.1875C66.1875 199.125 65.0625 195.104 62.8125 191.562C60.5625 188.021 57.4167 185.229 53.375 183.188C49.375 181.146 44.6667 180.125 39.25 180.125C33.5417 180.125 28.6875 181 24.6875 182.75C20.6875 184.5 17.6458 186.812 15.5625 189.688C13.4792 192.521 12.4375 195.583 12.4375 198.875C12.4375 201.292 12.8542 203.542 13.6875 205.625C14.5625 207.708 16.0208 209.646 18.0625 211.438C20.1042 213.188 22.9167 214.854 26.5 216.438C30.0833 217.979 34.5833 219.458 40 220.875C44.5 222.042 48.6042 223.354 52.3125 224.812C56.0625 226.271 59.2917 228 62 230C64.75 232 66.8542 234.396 68.3125 237.188C69.8125 239.938 70.5625 243.229 70.5625 247.062C70.5625 250.771 69.75 254.062 68.125 256.938C66.5417 259.812 64.3333 262.25 61.5 264.25C58.6667 266.208 55.375 267.708 51.625 268.75C47.9167 269.75 43.9375 270.25 39.6875 270.25C35.8125 270.25 31.8958 269.792 27.9375 268.875C23.9792 267.958 20.3542 266.479 17.0625 264.438C13.7708 262.354 11.125 259.583 9.125 256.125C7.125 252.667 6.125 248.396 6.125 243.312H9.5C9.5 247.854 10.4375 251.646 12.3125 254.688C14.1875 257.729 16.625 260.146 19.625 261.938C22.6667 263.688 25.9375 264.958 29.4375 265.75C32.9792 266.5 36.3958 266.875 39.6875 266.875C45.0208 266.875 49.75 266.042 53.875 264.375C58 262.708 61.2292 260.396 63.5625 257.438C65.9375 254.479 67.125 251.062 67.125 247.188ZM110.938 270.25C106.812 270.25 102.958 269.438 99.375 267.812C95.7917 266.146 92.6458 263.812 89.9375 260.812C87.2292 257.812 85.1042 254.271 83.5625 250.188C82.0625 246.062 81.3125 241.542 81.3125 236.625V233.875C81.3125 228.917 82.0417 224.396 83.5 220.312C85 216.188 87.0417 212.625 89.625 209.625C92.25 206.583 95.2708 204.25 98.6875 202.625C102.104 200.958 105.771 200.125 109.688 200.125C113.438 200.125 116.875 200.833 120 202.25C123.125 203.625 125.833 205.583 128.125 208.125C130.458 210.667 132.25 213.708 133.5 217.25C134.75 220.792 135.375 224.708 135.375 229V232.938H83.5V229.562H132V228.75C132 224.208 131.083 220.042 129.25 216.25C127.417 212.417 124.833 209.333 121.5 207C118.167 204.667 114.229 203.5 109.688 203.5C105.938 203.5 102.521 204.292 99.4375 205.875C96.3958 207.458 93.7708 209.646 91.5625 212.438C89.3542 215.188 87.6458 218.396 86.4375 222.062C85.2708 225.729 84.6875 229.667 84.6875 233.875V236.625C84.6875 240.833 85.3542 244.771 86.6875 248.438C88.0208 252.104 89.875 255.333 92.25 258.125C94.625 260.875 97.3958 263.042 100.562 264.625C103.771 266.167 107.229 266.938 110.938 266.938C114.812 266.938 118.417 266.292 121.75 265C125.125 263.708 128.208 261.25 131 257.625L133.375 259.312C131.875 261.438 130.062 263.333 127.938 265C125.854 266.625 123.396 267.917 120.562 268.875C117.771 269.792 114.562 270.25 110.938 270.25ZM192.812 252.438C192.812 250.396 192.25 248.333 191.125 246.25C190 244.125 187.958 242.146 185 240.312C182.042 238.479 177.771 236.958 172.188 235.75C168.396 234.917 165.062 234 162.188 233C159.354 232 156.979 230.812 155.062 229.438C153.146 228.021 151.708 226.312 150.75 224.312C149.792 222.312 149.312 219.938 149.312 217.188C149.312 214.812 149.812 212.604 150.812 210.562C151.854 208.479 153.354 206.667 155.312 205.125C157.271 203.542 159.646 202.312 162.438 201.438C165.229 200.562 168.396 200.125 171.938 200.125C176.979 200.125 181.292 200.938 184.875 202.562C188.5 204.188 191.271 206.458 193.188 209.375C195.146 212.25 196.125 215.604 196.125 219.438H192.688C192.688 216.646 191.875 214.042 190.25 211.625C188.667 209.208 186.333 207.25 183.25 205.75C180.167 204.25 176.396 203.5 171.938 203.5C167.396 203.5 163.708 204.188 160.875 205.562C158.042 206.938 155.958 208.667 154.625 210.75C153.333 212.833 152.688 214.938 152.688 217.062C152.688 218.812 152.938 220.438 153.438 221.938C153.938 223.396 154.896 224.771 156.312 226.062C157.771 227.312 159.854 228.5 162.562 229.625C165.271 230.75 168.812 231.812 173.188 232.812C178.562 234.021 182.938 235.479 186.312 237.188C189.688 238.896 192.167 241 193.75 243.5C195.375 245.958 196.188 248.958 196.188 252.5C196.188 255.125 195.625 257.521 194.5 259.688C193.417 261.854 191.833 263.729 189.75 265.312C187.708 266.896 185.208 268.125 182.25 269C179.333 269.833 176.062 270.25 172.438 270.25C166.979 270.25 162.354 269.417 158.562 267.75C154.812 266.042 151.958 263.792 150 261C148.083 258.167 147.125 255.104 147.125 251.812H150.5C150.792 255.688 152.062 258.729 154.312 260.938C156.604 263.104 159.375 264.646 162.625 265.562C165.917 266.438 169.188 266.875 172.438 266.875C176.896 266.875 180.625 266.167 183.625 264.75C186.667 263.333 188.958 261.521 190.5 259.312C192.042 257.062 192.812 254.771 192.812 252.438ZM256.562 252.438C256.562 250.396 256 248.333 254.875 246.25C253.75 244.125 251.708 242.146 248.75 240.312C245.792 238.479 241.521 236.958 235.938 235.75C232.146 234.917 228.812 234 225.938 233C223.104 232 220.729 230.812 218.812 229.438C216.896 228.021 215.458 226.312 214.5 224.312C213.542 222.312 213.062 219.938 213.062 217.188C213.062 214.812 213.562 212.604 214.562 210.562C215.604 208.479 217.104 206.667 219.062 205.125C221.021 203.542 223.396 202.312 226.188 201.438C228.979 200.562 232.146 200.125 235.688 200.125C240.729 200.125 245.042 200.938 248.625 202.562C252.25 204.188 255.021 206.458 256.938 209.375C258.896 212.25 259.875 215.604 259.875 219.438H256.438C256.438 216.646 255.625 214.042 254 211.625C252.417 209.208 250.083 207.25 247 205.75C243.917 204.25 240.146 203.5 235.688 203.5C231.146 203.5 227.458 204.188 224.625 205.562C221.792 206.938 219.708 208.667 218.375 210.75C217.083 212.833 216.438 214.938 216.438 217.062C216.438 218.812 216.688 220.438 217.188 221.938C217.688 223.396 218.646 224.771 220.062 226.062C221.521 227.312 223.604 228.5 226.312 229.625C229.021 230.75 232.562 231.812 236.938 232.812C242.312 234.021 246.688 235.479 250.062 237.188C253.438 238.896 255.917 241 257.5 243.5C259.125 245.958 259.938 248.958 259.938 252.5C259.938 255.125 259.375 257.521 258.25 259.688C257.167 261.854 255.583 263.729 253.5 265.312C251.458 266.896 248.958 268.125 246 269C243.083 269.833 239.812 270.25 236.188 270.25C230.729 270.25 226.104 269.417 222.312 267.75C218.562 266.042 215.708 263.792 213.75 261C211.833 258.167 210.875 255.104 210.875 251.812H214.25C214.542 255.688 215.812 258.729 218.062 260.938C220.354 263.104 223.125 264.646 226.375 265.562C229.667 266.438 232.938 266.875 236.188 266.875C240.646 266.875 244.375 266.167 247.375 264.75C250.417 263.333 252.708 261.521 254.25 259.312C255.792 257.062 256.562 254.771 256.562 252.438ZM282.812 201.375V269H279.438V201.375H282.812ZM277.688 180.25C277.688 179.292 278.021 178.479 278.688 177.812C279.354 177.104 280.167 176.75 281.125 176.75C282.083 176.75 282.896 177.104 283.562 177.812C284.271 178.479 284.625 179.292 284.625 180.25C284.625 181.208 284.271 182.021 283.562 182.688C282.896 183.354 282.083 183.688 281.125 183.688C280.167 183.688 279.354 183.354 278.688 182.688C278.021 182.021 277.688 181.208 277.688 180.25ZM299.875 236.5V233.875C299.875 228.917 300.583 224.375 302 220.25C303.458 216.125 305.479 212.562 308.062 209.562C310.688 206.562 313.812 204.25 317.438 202.625C321.062 200.958 325.062 200.125 329.438 200.125C333.854 200.125 337.875 200.958 341.5 202.625C345.125 204.25 348.25 206.562 350.875 209.562C353.5 212.562 355.521 216.125 356.938 220.25C358.354 224.375 359.062 228.917 359.062 233.875V236.5C359.062 241.458 358.354 246 356.938 250.125C355.521 254.25 353.5 257.812 350.875 260.812C348.292 263.812 345.188 266.146 341.562 267.812C337.938 269.438 333.938 270.25 329.562 270.25C325.146 270.25 321.125 269.438 317.5 267.812C313.875 266.146 310.75 263.812 308.125 260.812C305.5 257.812 303.458 254.25 302 250.125C300.583 246 299.875 241.458 299.875 236.5ZM303.25 233.875V236.5C303.25 240.542 303.833 244.396 305 248.062C306.208 251.688 307.938 254.917 310.188 257.75C312.438 260.583 315.188 262.812 318.438 264.438C321.688 266.062 325.396 266.875 329.562 266.875C333.688 266.875 337.354 266.062 340.562 264.438C343.812 262.812 346.562 260.583 348.812 257.75C351.062 254.917 352.771 251.688 353.938 248.062C355.104 244.396 355.688 240.542 355.688 236.5V233.875C355.688 229.917 355.104 226.125 353.938 222.5C352.771 218.875 351.042 215.646 348.75 212.812C346.5 209.938 343.75 207.667 340.5 206C337.25 204.333 333.562 203.5 329.438 203.5C325.312 203.5 321.625 204.333 318.375 206C315.167 207.667 312.417 209.938 310.125 212.812C307.875 215.646 306.167 218.875 305 222.5C303.833 226.125 303.25 229.917 303.25 233.875ZM378.875 215.812V269H375.5V201.375H378.875V215.812ZM378.312 229.375L376.5 225.812C376.917 222.479 377.833 219.292 379.25 216.25C380.667 213.167 382.521 210.417 384.812 208C387.104 205.583 389.771 203.667 392.812 202.25C395.854 200.833 399.208 200.125 402.875 200.125C406.292 200.125 409.333 200.604 412 201.562C414.667 202.479 416.917 203.958 418.75 206C420.583 208 421.979 210.583 422.938 213.75C423.896 216.917 424.375 220.75 424.375 225.25V269H421V225.25C421 219.5 420.208 215.062 418.625 211.938C417.083 208.771 414.938 206.562 412.188 205.312C409.438 204.062 406.271 203.438 402.688 203.438C398.438 203.438 394.792 204.396 391.75 206.312C388.75 208.188 386.271 210.542 384.312 213.375C382.396 216.208 380.938 219.083 379.938 222C378.979 224.917 378.438 227.375 378.312 229.375Z" fill="#252123"/>
<ellipse cx="107" cy="96.5" rx="26" ry="22.5" fill="#252123"/>
</svg>
