<svg width="274" height="35" viewBox="0 0 274 35" fill="none" xmlns="http://www.w3.org/2000/svg">
<path d="M18.3726 24.1912V0.467914H19.6349V24.1912C19.6349 26.5152 19.1985 28.4882 18.3259 30.1103C17.4688 31.7168 16.3001 32.9334 14.8197 33.76C13.3392 34.5867 11.6718 35 9.81744 35C7.82278 35 6.08525 34.6413 4.60485 33.9238C3.14002 33.2063 2.00245 32.1223 1.19212 30.6718C0.397372 29.2057 0 27.3652 0 25.1504H1.26224C1.26224 26.9909 1.5817 28.5506 2.22061 29.8295C2.85952 31.1085 3.8101 32.0833 5.07234 32.754C6.35017 33.4091 7.93187 33.7366 9.81744 33.7366C11.3758 33.7366 12.8016 33.3779 14.095 32.6604C15.3884 31.943 16.4247 30.8746 17.2039 29.4552C17.9831 28.0359 18.3726 26.2812 18.3726 24.1912Z" fill="#252123"/>
<path d="M44.1083 29.7828V16.7045C44.1083 15.3008 43.8045 14.0998 43.1967 13.1016C42.6046 12.1034 41.7319 11.3391 40.5787 10.8088C39.4412 10.2785 38.0465 10.0134 36.3946 10.0134C34.8675 10.0134 33.4884 10.2863 32.2573 10.8322C31.0418 11.3625 30.0756 12.0956 29.3588 13.0314C28.6576 13.9672 28.3069 15.0201 28.3069 16.1898L27.0447 16.143C27.0447 15.1604 27.2707 14.2246 27.7226 13.3356C28.1901 12.4465 28.8368 11.6589 29.6627 10.9726C30.5042 10.2863 31.4937 9.74822 32.6313 9.35829C33.7845 8.95276 35.0389 8.75 36.3946 8.75C38.1555 8.75 39.7061 9.04635 41.0462 9.63904C42.402 10.2317 43.4616 11.1208 44.2252 12.3062C44.9888 13.4915 45.3706 14.9733 45.3706 16.7513V29.4318C45.3706 30.3365 45.4251 31.2489 45.5342 32.1691C45.6589 33.0893 45.8225 33.8068 46.0251 34.3215V34.5321H44.5758C44.42 33.9238 44.3031 33.1907 44.2252 32.3329C44.1473 31.4594 44.1083 30.6094 44.1083 29.7828ZM44.6693 20.4011L44.7161 21.6878H38.1244C36.4881 21.6878 35.0233 21.8516 33.7299 22.1791C32.4365 22.4911 31.3379 22.9356 30.4341 23.5127C29.5302 24.0898 28.8368 24.7761 28.3537 25.5715C27.8706 26.367 27.6291 27.2482 27.6291 28.2152C27.6291 29.2291 27.9018 30.1571 28.4472 30.9993C29.0082 31.8416 29.7796 32.5123 30.7613 33.0114C31.743 33.5105 32.8728 33.76 34.1507 33.76C35.9271 33.76 37.5011 33.4715 38.8724 32.8944C40.2437 32.3017 41.4047 31.475 42.3552 30.4144C43.3058 29.3538 44.0304 28.0983 44.5291 26.6477L45.0901 27.8175C44.794 28.691 44.3499 29.5566 43.7577 30.4144C43.1811 31.2567 42.4409 32.0287 41.5371 32.7306C40.6333 33.4169 39.5658 33.9706 38.3348 34.3917C37.1193 34.7972 35.7246 35 34.1507 35C32.5768 35 31.2054 34.7115 30.0367 34.1344C28.8679 33.5417 27.9641 32.7306 27.3252 31.7012C26.6863 30.6562 26.3668 29.463 26.3668 28.1217C26.3668 26.9987 26.6317 25.9693 27.1616 25.0334C27.6914 24.082 28.455 23.2631 29.4523 22.5769C30.4652 21.875 31.6963 21.3369 33.1455 20.9626C34.5948 20.5882 36.231 20.4011 38.0543 20.4011H44.6693Z" fill="#252123"/>
<path d="M54.5569 34.5321H53.2713V9.21791H54.5569V34.5321ZM54.3933 19.6992L53.7154 18.3656C53.8712 17.1179 54.2063 15.9247 54.7205 14.7861C55.2504 13.6319 55.936 12.6025 56.7775 11.6979C57.6346 10.7932 58.6241 10.0758 59.7461 9.54545C60.8837 9.01515 62.1381 8.75 63.5095 8.75C64.7873 8.75 65.9249 8.92157 66.9222 9.26471C67.9351 9.59225 68.7844 10.1148 69.4701 10.8322C70.1713 11.5341 70.7011 12.4543 71.0595 13.5929C71.4335 14.7315 71.6205 16.0963 71.6205 17.6872V34.5321H70.3583V17.6872C70.3583 15.6595 70.0622 14.092 69.4701 12.9846C68.8779 11.8772 68.0598 11.1052 67.0157 10.6684C65.9716 10.2161 64.7795 9.98997 63.4393 9.98997C61.8499 9.98997 60.4941 10.3487 59.3721 11.0662C58.2501 11.768 57.3307 12.6493 56.6139 13.7099C55.8971 14.7705 55.3594 15.8467 55.001 16.9385C54.6426 18.0303 54.44 18.9505 54.3933 19.6992ZM71.6205 17.6872L70.7557 16.9151C70.9115 15.8389 71.2543 14.8173 71.7842 13.8503C72.3296 12.8676 73.0308 11.9942 73.8879 11.2299C74.745 10.4657 75.7423 9.8652 76.8799 9.42848C78.033 8.97616 79.2953 8.75 80.6666 8.75C81.9444 8.75 83.082 8.92937 84.0793 9.2881C85.0922 9.63124 85.9415 10.1849 86.6272 10.9492C87.3284 11.6979 87.8583 12.6649 88.2167 13.8503C88.5907 15.0357 88.7777 16.4706 88.7777 18.1551V34.5321H87.5154V18.1551C87.5154 16.0027 87.2194 14.3338 86.6272 13.1484C86.035 11.963 85.2169 11.1364 84.1728 10.6684C83.1288 10.2005 81.9366 9.97438 80.5965 9.98997C79.1005 10.0056 77.7993 10.2863 76.6929 10.8322C75.6021 11.3625 74.6904 12.0332 73.958 12.8443C73.2256 13.6553 72.6646 14.4975 72.275 15.371C71.901 16.2288 71.6829 17.0009 71.6205 17.6872Z" fill="#252123"/>
<path d="M140.389 26.367C140.389 25.2908 140.202 24.3316 139.828 23.4893C139.454 22.6471 138.854 21.8906 138.028 21.2199C137.203 20.5492 136.12 19.9332 134.779 19.3717C133.455 18.8102 131.826 18.2643 129.894 17.734C128.164 17.266 126.606 16.7669 125.219 16.2366C123.832 15.6907 122.648 15.0668 121.666 14.365C120.7 13.6631 119.96 12.8287 119.445 11.8616C118.931 10.879 118.674 9.70143 118.674 8.32888C118.674 7.03431 118.955 5.87233 119.516 4.84291C120.092 3.8135 120.887 2.94006 121.9 2.22259C122.928 1.50512 124.128 0.959225 125.5 0.584893C126.871 0.194964 128.359 0 129.964 0C132.177 0 134.133 0.421123 135.831 1.26337C137.53 2.10562 138.862 3.2832 139.828 4.79612C140.81 6.29345 141.301 8.04813 141.301 10.0602H140.039C140.039 8.37567 139.618 6.87054 138.776 5.54479C137.935 4.21903 136.758 3.17402 135.247 2.40976C133.751 1.6455 131.99 1.26337 129.964 1.26337C127.829 1.26337 126.014 1.59091 124.518 2.24599C123.022 2.90107 121.884 3.76671 121.105 4.84291C120.326 5.90352 119.936 7.04991 119.936 8.28209C119.936 9.18672 120.092 10.029 120.404 10.8088C120.731 11.5887 121.277 12.3139 122.04 12.9846C122.804 13.6397 123.856 14.2636 125.196 14.8563C126.536 15.4334 128.219 15.9871 130.245 16.5174C131.928 16.9541 133.463 17.4454 134.85 17.9913C136.252 18.5372 137.46 19.1845 138.473 19.9332C139.501 20.6818 140.288 21.5787 140.833 22.6237C141.394 23.6531 141.675 24.8853 141.675 26.3202C141.675 27.7083 141.371 28.9405 140.763 30.0167C140.171 31.0929 139.345 32.0053 138.286 32.754C137.226 33.4871 135.995 34.0486 134.592 34.4385C133.205 34.8128 131.717 35 130.128 35C128.679 35 127.214 34.8284 125.733 34.4853C124.253 34.1422 122.897 33.5885 121.666 32.8242C120.435 32.0443 119.445 31.0071 118.697 29.7126C117.949 28.418 117.575 26.8193 117.575 24.9164H118.838C118.838 26.6165 119.188 28.0359 119.89 29.1745C120.591 30.3131 121.502 31.2177 122.624 31.8884C123.762 32.5434 124.985 33.0192 126.294 33.3155C127.619 33.5963 128.897 33.7366 130.128 33.7366C132.122 33.7366 133.891 33.4247 135.434 32.8008C136.977 32.1769 138.184 31.3113 139.057 30.2039C139.945 29.0965 140.389 27.8175 140.389 26.367Z" fill="#252123"/>
<path d="M156.775 35C155.232 35 153.791 34.6959 152.451 34.0876C151.111 33.4637 149.934 32.5902 148.921 31.4672C147.908 30.3443 147.114 29.0185 146.537 27.49C145.976 25.9459 145.695 24.2536 145.695 22.4131V21.3837C145.695 19.5276 145.968 17.8353 146.514 16.3068C147.075 14.7627 147.838 13.4291 148.804 12.3062C149.786 11.1676 150.916 10.2941 152.194 9.68583C153.471 9.06194 154.843 8.75 156.308 8.75C157.71 8.75 158.996 9.01515 160.164 9.54545C161.333 10.0602 162.346 10.7932 163.203 11.7447C164.076 12.6961 164.746 13.8347 165.213 15.1604C165.681 16.4862 165.915 17.9523 165.915 19.5588V21.0328H146.514V19.7694H164.652V19.4652C164.652 17.7652 164.31 16.2054 163.624 14.7861C162.938 13.3512 161.972 12.197 160.725 11.3235C159.479 10.4501 158.006 10.0134 156.308 10.0134C154.905 10.0134 153.627 10.3097 152.474 10.9024C151.337 11.4951 150.355 12.3139 149.529 13.359C148.703 14.3884 148.064 15.5893 147.612 16.9619C147.176 18.3344 146.958 19.8084 146.958 21.3837V22.4131C146.958 23.9884 147.207 25.4623 147.706 26.8349C148.204 28.2074 148.898 29.4162 149.786 30.4612C150.674 31.4906 151.711 32.3017 152.895 32.8944C154.095 33.4715 155.388 33.76 156.775 33.76C158.224 33.76 159.572 33.5183 160.819 33.0348C162.081 32.5512 163.234 31.631 164.278 30.2741L165.167 30.9058C164.606 31.7012 163.928 32.4109 163.133 33.0348C162.354 33.643 161.435 34.1266 160.375 34.4853C159.331 34.8284 158.131 35 156.775 35Z" fill="#252123"/>
<path d="M187.396 28.3322C187.396 27.568 187.186 26.7959 186.765 26.016C186.344 25.2206 185.581 24.4797 184.474 23.7934C183.368 23.1072 181.771 22.5379 179.682 22.0856C178.264 21.7736 177.018 21.4305 175.942 21.0562C174.883 20.6818 173.995 20.2373 173.278 19.7226C172.561 19.1923 172.023 18.5528 171.665 17.8041C171.306 17.0555 171.127 16.1664 171.127 15.137C171.127 14.248 171.314 13.4213 171.688 12.6571C172.078 11.8772 172.639 11.1988 173.371 10.6217C174.104 10.029 174.992 9.56885 176.036 9.24131C177.08 8.91377 178.264 8.75 179.589 8.75C181.475 8.75 183.087 9.05414 184.428 9.66243C185.783 10.2707 186.82 11.1208 187.536 12.2126C188.269 13.2888 188.635 14.5443 188.635 15.9793H187.349C187.349 14.9343 187.046 13.9594 186.438 13.0548C185.846 12.1502 184.973 11.4171 183.82 10.8556C182.667 10.2941 181.256 10.0134 179.589 10.0134C177.89 10.0134 176.511 10.2707 175.452 10.7854C174.392 11.3001 173.613 11.9474 173.114 12.7273C172.631 13.5071 172.39 14.2948 172.39 15.0902C172.39 15.7453 172.483 16.3536 172.67 16.9151C172.857 17.461 173.215 17.9757 173.745 18.4592C174.291 18.9271 175.07 19.3717 176.083 19.7928C177.096 20.2139 178.42 20.6116 180.056 20.986C182.067 21.4383 183.703 21.9842 184.965 22.6237C186.227 23.2631 187.155 24.0508 187.747 24.9866C188.355 25.9069 188.658 27.0299 188.658 28.3556C188.658 29.3382 188.448 30.2351 188.027 31.0461C187.622 31.8572 187.03 32.559 186.251 33.1517C185.487 33.7444 184.552 34.2045 183.446 34.5321C182.355 34.844 181.132 35 179.776 35C177.735 35 176.005 34.6881 174.587 34.0642C173.184 33.4247 172.117 32.5824 171.384 31.5374C170.668 30.4768 170.309 29.3304 170.309 28.0983H171.571C171.68 29.5488 172.156 30.6874 172.997 31.514C173.854 32.3251 174.891 32.9022 176.106 33.2453C177.337 33.5729 178.56 33.7366 179.776 33.7366C181.443 33.7366 182.838 33.4715 183.96 32.9412C185.098 32.4109 185.955 31.7324 186.531 30.9058C187.108 30.0635 187.396 29.2057 187.396 28.3322Z" fill="#252123"/>
<path d="M211.239 28.3322C211.239 27.568 211.028 26.7959 210.607 26.016C210.187 25.2206 209.423 24.4797 208.317 23.7934C207.21 23.1072 205.613 22.5379 203.525 22.0856C202.107 21.7736 200.86 21.4305 199.785 21.0562C198.725 20.6818 197.837 20.2373 197.12 19.7226C196.403 19.1923 195.866 18.5528 195.507 17.8041C195.149 17.0555 194.97 16.1664 194.97 15.137C194.97 14.248 195.157 13.4213 195.531 12.6571C195.92 11.8772 196.481 11.1988 197.214 10.6217C197.946 10.029 198.834 9.56885 199.878 9.24131C200.922 8.91377 202.107 8.75 203.431 8.75C205.317 8.75 206.93 9.05414 208.27 9.66243C209.626 10.2707 210.662 11.1208 211.379 12.2126C212.111 13.2888 212.477 14.5443 212.477 15.9793H211.192C211.192 14.9343 210.888 13.9594 210.28 13.0548C209.688 12.1502 208.815 11.4171 207.662 10.8556C206.509 10.2941 205.099 10.0134 203.431 10.0134C201.733 10.0134 200.354 10.2707 199.294 10.7854C198.234 11.3001 197.455 11.9474 196.956 12.7273C196.473 13.5071 196.232 14.2948 196.232 15.0902C196.232 15.7453 196.325 16.3536 196.512 16.9151C196.699 17.461 197.058 17.9757 197.588 18.4592C198.133 18.9271 198.912 19.3717 199.925 19.7928C200.938 20.2139 202.263 20.6116 203.899 20.986C205.909 21.4383 207.545 21.9842 208.808 22.6237C210.07 23.2631 210.997 24.0508 211.589 24.9866C212.197 25.9069 212.501 27.0299 212.501 28.3556C212.501 29.3382 212.29 30.2351 211.87 31.0461C211.464 31.8572 210.872 32.559 210.093 33.1517C209.33 33.7444 208.395 34.2045 207.288 34.5321C206.197 34.844 204.974 35 203.618 35C201.577 35 199.847 34.6881 198.429 34.0642C197.027 33.4247 195.959 32.5824 195.227 31.5374C194.51 30.4768 194.152 29.3304 194.152 28.0983H195.414C195.523 29.5488 195.998 30.6874 196.84 31.514C197.697 32.3251 198.733 32.9022 199.948 33.2453C201.18 33.5729 202.403 33.7366 203.618 33.7366C205.286 33.7366 206.68 33.4715 207.802 32.9412C208.94 32.4109 209.797 31.7324 210.374 30.9058C210.95 30.0635 211.239 29.2057 211.239 28.3322Z" fill="#252123"/>
<path d="M221.056 9.21791V34.5321H219.794V9.21791H221.056ZM219.139 1.31016C219.139 0.951426 219.264 0.647282 219.513 0.397727C219.763 0.132576 220.066 0 220.425 0C220.783 0 221.087 0.132576 221.336 0.397727C221.601 0.647282 221.734 0.951426 221.734 1.31016C221.734 1.66889 221.601 1.97304 221.336 2.22259C221.087 2.47215 220.783 2.59693 220.425 2.59693C220.066 2.59693 219.763 2.47215 219.513 2.22259C219.264 1.97304 219.139 1.66889 219.139 1.31016Z" fill="#252123"/>
<path d="M227.437 22.3663V21.3837C227.437 19.5276 227.702 17.8275 228.232 16.2834C228.777 14.7393 229.533 13.4057 230.499 12.2828C231.481 11.1598 232.65 10.2941 234.006 9.68583C235.361 9.06194 236.857 8.75 238.494 8.75C240.145 8.75 241.649 9.06194 243.005 9.68583C244.361 10.2941 245.529 11.1598 246.511 12.2828C247.493 13.4057 248.249 14.7393 248.779 16.2834C249.308 17.8275 249.573 19.5276 249.573 21.3837V22.3663C249.573 24.2224 249.308 25.9225 248.779 27.4666C248.249 29.0107 247.493 30.3443 246.511 31.4672C245.545 32.5902 244.384 33.4637 243.028 34.0876C241.673 34.6959 240.177 35 238.54 35C236.889 35 235.385 34.6959 234.029 34.0876C232.673 33.4637 231.505 32.5902 230.523 31.4672C229.541 30.3443 228.777 29.0107 228.232 27.4666C227.702 25.9225 227.437 24.2224 227.437 22.3663ZM228.7 21.3837V22.3663C228.7 23.8792 228.918 25.322 229.354 26.6945C229.806 28.0515 230.453 29.2603 231.294 30.3209C232.136 31.3815 233.164 32.2159 234.38 32.8242C235.595 33.4325 236.982 33.7366 238.54 33.7366C240.083 33.7366 241.454 33.4325 242.654 32.8242C243.87 32.2159 244.898 31.3815 245.74 30.3209C246.581 29.2603 247.22 28.0515 247.657 26.6945C248.093 25.322 248.311 23.8792 248.311 22.3663V21.3837C248.311 19.902 248.093 18.4826 247.657 17.1257C247.22 15.7687 246.573 14.5599 245.716 13.4993C244.875 12.4231 243.846 11.5731 242.631 10.9492C241.415 10.3253 240.036 10.0134 238.494 10.0134C236.951 10.0134 235.572 10.3253 234.356 10.9492C233.156 11.5731 232.128 12.4231 231.271 13.4993C230.429 14.5599 229.79 15.7687 229.354 17.1257C228.918 18.4826 228.7 19.902 228.7 21.3837Z" fill="#252123"/>
<path d="M256.983 34.5321H255.721V9.21791H256.983V34.5321ZM256.773 19.6992L256.095 18.3656C256.251 17.1179 256.594 15.9247 257.123 14.7861C257.653 13.6319 258.347 12.6025 259.204 11.6979C260.061 10.7932 261.058 10.0758 262.196 9.54545C263.333 9.01515 264.588 8.75 265.959 8.75C267.237 8.75 268.374 8.92937 269.372 9.2881C270.369 9.63124 271.211 10.1849 271.896 10.9492C272.582 11.6979 273.104 12.6649 273.462 13.8503C273.821 15.0357 274 16.4706 274 18.1551V34.5321H272.738V18.1551C272.738 16.0027 272.442 14.3416 271.85 13.1718C271.273 11.9864 270.47 11.1598 269.442 10.6918C268.413 10.2239 267.229 9.98997 265.889 9.98997C264.299 9.98997 262.936 10.3487 261.798 11.0662C260.676 11.768 259.749 12.6493 259.017 13.7099C258.3 14.7705 257.754 15.8467 257.38 16.9385C257.022 18.0303 256.819 18.9505 256.773 19.6992Z" fill="#252123"/>
<path d="M19.5414 26.1096C19.5414 30.7612 15.1878 34.5321 9.81744 34.5321C4.44705 34.5321 0.0934994 30.7612 0.0934994 26.1096C0.0934994 21.458 4.44705 17.6872 9.81744 17.6872C15.1878 17.6872 19.5414 21.458 19.5414 26.1096Z" fill="#252123"/>
</svg>
